# Blender 4.2.0
# www.blender.org
mtllib geom_5.mtl
o vert.011
v -0.130387 -0.000750 -0.090000
v 0.130387 -0.000750 -0.090000
v -0.130387 0.000750 -0.090000
v 0.130387 0.000750 -0.090000
v -0.130387 -0.000750 0.090000
v 0.130387 -0.000750 0.090000
v -0.130387 0.000750 0.090000
v 0.130387 0.000750 0.090000
vn -0.0000 -0.0000 -1.0000
vn -0.0000 -1.0000 -0.0000
vn -0.0000 -0.0000 1.0000
vn -0.0000 1.0000 -0.0000
vn -1.0000 -0.0000 -0.0000
vn 1.0000 -0.0000 -0.0000
s 0
f 3//1 2//1 1//1
f 2//2 5//2 1//2
f 6//3 7//3 5//3
f 7//4 4//4 3//4
f 5//5 3//5 1//5
f 4//6 6//6 2//6
f 3//1 4//1 2//1
f 2//2 6//2 5//2
f 6//3 8//3 7//3
f 7//4 8//4 4//4
f 5//5 7//5 3//5
f 4//6 8//6 6//6
